<svg id="Group_86" data-name="Group 86" xmlns="http://www.w3.org/2000/svg" width="20.364" height="14" viewBox="0 0 20.364 14">
  <g id="Menu">
    <path id="Path_316" data-name="Path 316" d="M.636,61.425H19.727a.636.636,0,1,0,0-1.273H.636a.636.636,0,0,0,0,1.273Z" transform="translate(0 -60.152)" fill="#fff"/>
    <path id="Path_317" data-name="Path 317" d="M19.727,180.455H.636a.636.636,0,0,0,0,1.273H19.727a.636.636,0,0,0,0-1.273Z" transform="translate(0 -174.091)" fill="#fff"/>
    <path id="Path_318" data-name="Path 318" d="M19.727,300.758H.636a.636.636,0,1,0,0,1.273H19.727a.636.636,0,1,0,0-1.273Z" transform="translate(0 -288.031)" fill="#fff"/>
  </g>
</svg>
