<svg xmlns="http://www.w3.org/2000/svg" width="16.5" height="9.9" viewBox="0 0 16.5 9.9">
  <path id="Icon_awesome-bed" data-name="Icon awesome-bed" d="M4.537,9.45A2.063,2.063,0,1,0,2.475,7.387,2.065,2.065,0,0,0,4.537,9.45Zm9.075-3.3H7.838a.412.412,0,0,0-.412.412v3.712H1.65V4.912A.412.412,0,0,0,1.238,4.5H.413A.412.412,0,0,0,0,4.912v9.075a.412.412,0,0,0,.413.413h.825a.412.412,0,0,0,.413-.413V12.75h13.2v1.237a.412.412,0,0,0,.413.413h.825a.412.412,0,0,0,.413-.413V9.038A2.887,2.887,0,0,0,13.613,6.15Z" transform="translate(0 -4.5)" fill="#fff"/>
</svg>
