<svg xmlns="http://www.w3.org/2000/svg" width="16.384" height="17.194" viewBox="0 0 16.384 17.194">
  <g id="Group_451" data-name="Group 451" transform="translate(-1630.116 -3737.903)">
    <path id="Icon_ionic-ios-arrow-down" data-name="Icon ionic-ios-arrow-down" d="M8.6,2.964,15.1,9.47a1.224,1.224,0,0,0,1.735,0,1.239,1.239,0,0,0,0-1.741L9.471.358A1.227,1.227,0,0,0,7.776.322L.358,7.725A1.229,1.229,0,0,0,2.094,9.465Z" transform="translate(1646.5 3737.903) rotate(90)" fill="#fff"/>
    <path id="Icon_ionic-ios-arrow-down-2" data-name="Icon ionic-ios-arrow-down" d="M8.6,2.964,15.1,9.47a1.224,1.224,0,0,0,1.735,0,1.239,1.239,0,0,0,0-1.741L9.471.358A1.227,1.227,0,0,0,7.776.322L.358,7.725A1.229,1.229,0,0,0,2.094,9.465Z" transform="translate(1639.947 3737.903) rotate(90)" fill="#fff"/>
  </g>
</svg>
