<svg xmlns="http://www.w3.org/2000/svg" width="13.992" height="13.992" viewBox="0 0 13.992 13.992">
  <path id="Icon_metro-instagram" data-name="Icon metro-instagram" d="M14.24,1.928H4.894A2.33,2.33,0,0,0,2.571,4.251V13.6A2.33,2.33,0,0,0,4.894,15.92H14.24A2.33,2.33,0,0,0,16.563,13.6V4.251A2.33,2.33,0,0,0,14.24,1.928ZM7.05,8.05h5.034a2.664,2.664,0,1,1-5.034,0Zm7.764,0V13.3a.877.877,0,0,1-.874.874H5.194A.877.877,0,0,1,4.32,13.3V8.05H5.688a3.976,3.976,0,1,0,7.758,0Zm0-3.061a.439.439,0,0,1-.437.437H13.5a.439.439,0,0,1-.437-.437V4.114a.439.439,0,0,1,.437-.437h.874a.439.439,0,0,1,.437.437Z" transform="translate(-2.571 -1.928)" fill="#f7f7f7"/>
</svg>
