<svg xmlns="http://www.w3.org/2000/svg" width="18.73" height="18.73" viewBox="0 0 18.73 18.73">
  <path id="Icon_awesome-linkedin-in" data-name="Icon awesome-linkedin-in" d="M4.193,18.73H.309V6.226H4.193ZM2.249,4.52A2.26,2.26,0,1,1,4.5,2.25,2.268,2.268,0,0,1,2.249,4.52ZM18.726,18.73H14.851V12.643c0-1.451-.029-3.311-2.019-3.311-2.019,0-2.328,1.576-2.328,3.207V18.73H6.625V6.226h3.724V7.931H10.4a4.08,4.08,0,0,1,3.674-2.019c3.93,0,4.652,2.588,4.652,5.949V18.73Z" transform="translate(0 0)" fill="#fff"/>
</svg>
