<svg xmlns="http://www.w3.org/2000/svg" width="28" height="28" viewBox="0 0 28 28">
  <g id="Group_582" data-name="Group 582" transform="translate(-689 -24)">
    <g id="Ellipse_7" data-name="Ellipse 7" transform="translate(689 24)" fill="#fff" stroke="#707070" stroke-width="1">
      <circle cx="14" cy="14" r="14" stroke="none"/>
      <circle cx="14" cy="14" r="13.5" fill="none"/>
    </g>
    <g id="Group_88" data-name="Group 88" transform="translate(697.155 29.671)">
      <path id="Path_319" data-name="Path 319" d="M140.191,7.883h.1a2.8,2.8,0,0,0,2.136-.924,5.542,5.542,0,0,0,.951-3.784A3.091,3.091,0,0,0,141.905.427,3.369,3.369,0,0,0,140.275,0h-.051a3.374,3.374,0,0,0-1.63.415,3.093,3.093,0,0,0-1.488,2.76,5.542,5.542,0,0,0,.951,3.784A2.784,2.784,0,0,0,140.191,7.883Zm-2.275-4.632c0-.009,0-.018,0-.024a2.2,2.2,0,0,1,2.3-2.406h.036a2.215,2.215,0,0,1,2.3,2.406.059.059,0,0,0,0,.024,4.8,4.8,0,0,1-.748,3.166,1.986,1.986,0,0,1-1.56.648h-.03a1.979,1.979,0,0,1-1.557-.648A4.823,4.823,0,0,1,137.915,3.251Z" transform="translate(-134.021)"/>
      <path id="Path_320" data-name="Path 320" d="M48.517,263.012V263c0-.024,0-.048,0-.076a2.377,2.377,0,0,0-1.372-2.451l-.03-.009a8.742,8.742,0,0,1-2.515-1.145.409.409,0,1,0-.47.67,9.437,9.437,0,0,0,2.766,1.263c.706.251.785,1.006.806,1.7a.609.609,0,0,0,0,.076,5.5,5.5,0,0,1-.064.936,11.15,11.15,0,0,1-5.341,1.242,11.214,11.214,0,0,1-5.344-1.245,5.206,5.206,0,0,1-.064-.936c0-.024,0-.048,0-.076.021-.691.1-1.445.806-1.7a9.524,9.524,0,0,0,2.766-1.263.409.409,0,1,0-.47-.67,8.646,8.646,0,0,1-2.515,1.145l-.03.009a2.38,2.38,0,0,0-1.372,2.451.608.608,0,0,1,0,.076v.009a4.646,4.646,0,0,0,.155,1.372.389.389,0,0,0,.158.191A11.46,11.46,0,0,0,42.3,266.02a11.5,11.5,0,0,0,5.914-1.448.406.406,0,0,0,.158-.191A4.875,4.875,0,0,0,48.517,263.012Z" transform="translate(-36.073 -251.39)"/>
    </g>
  </g>
</svg>
