<svg xmlns="http://www.w3.org/2000/svg" width="110.686" height="65.216" viewBox="0 0 110.686 65.216">
  <g id="Charcoal" transform="translate(-57.463 -33.857)">
    <path id="Path_299" data-name="Path 299" d="M485.651,82.029h12.088v-19.1l19.043,19.091h17.029l-48.16-48.16Zm8.958-48.172L506.6,45.849h15.122V61.067l11.992,11.992v-39.2Z" transform="translate(-396.925)" fill="#fff"/>
    <path id="Path_300" data-name="Path 300" d="M63.483,835.7v6.56h-1.2l-3.322-3.981v3.981h-1.5V835.7h1.2l3.262,3.981V835.7Z" transform="translate(0 -743.301)" fill="#fff"/>
    <path id="Path_301" data-name="Path 301" d="M182.286,835.7v.983l-2.4,5.576h-1.679l2.4-5.325h-2.218v1.067h-1.355v-2.3Z" transform="translate(-110.841 -743.301)" fill="#fff"/>
    <path id="Path_302" data-name="Path 302" d="M410.013,842.263l-1.259-1.823h-1.4v1.823h-1.523V835.7h2.842c1.751,0,2.854.911,2.854,2.4a2.134,2.134,0,0,1-1.355,2.075l1.475,2.111Zm-1.427-5.325h-1.2v2.291h1.2c.923,0,1.391-.432,1.391-1.2S409.522,836.938,408.586,836.938Z" transform="translate(-322.93 -743.301)" fill="#fff"/>
    <path id="Path_303" data-name="Path 303" d="M528.5,841.039v1.2h-5.073V835.7h4.953v1.2h-3.454v1.427h3.034v1.2h-3.034v1.523Z" transform="translate(-431.943 -743.301)" fill="#fff"/>
    <path id="Path_304" data-name="Path 304" d="M626.006,840.859h-3.046l-.576,1.4h-1.559l2.926-6.56h1.5l2.938,6.56h-1.547Zm-.48-1.2-1.043-2.506-1.043,2.506Z" transform="translate(-522.229 -743.3)" fill="#fff"/>
    <path id="Path_305" data-name="Path 305" d="M754.028,835.7h1.523v5.324h3.286v1.2h-4.8Z" transform="translate(-645.707 -743.301)" fill="#fff"/>
    <path id="Path_306" data-name="Path 306" d="M978.544,841.039v1.2h-5.085V835.7h4.953v1.2H974.97v1.427h3.046v1.2H974.97v1.523Z" transform="translate(-849.117 -743.301)" fill="#fff"/>
    <path id="Path_307" data-name="Path 307" d="M1075.784,839.468l.516-1.2a3.861,3.861,0,0,0,2.17.684c.9,0,1.259-.3,1.259-.708,0-1.2-3.813-.384-3.813-2.818,0-1.115.9-2.039,2.77-2.039a4.4,4.4,0,0,1,2.278.576l-.468,1.2a3.705,3.705,0,0,0-1.823-.516c-.9,0-1.2.336-1.2.755,0,1.2,3.813.372,3.813,2.782,0,1.091-.911,2.039-2.782,2.039A4.677,4.677,0,0,1,1075.784,839.468Z" transform="translate(-943.971 -741.154)" fill="#fff"/>
    <path id="Path_308" data-name="Path 308" d="M1178.858,837.394H1176.8v-1.2h5.72v1.2h-2.123v5.325h-1.535Z" transform="translate(-1037.607 -743.757)" fill="#fff"/>
    <path id="Path_309" data-name="Path 309" d="M1277.895,840.859h-3.046l-.576,1.4h-1.559l2.926-6.56h1.5l2.962,6.56h-1.631Zm-.48-1.2-1.043-2.506-1.067,2.554Z" transform="translate(-1126.522 -743.3)" fill="#fff"/>
    <path id="Path_310" data-name="Path 310" d="M1393.4,837.394h-2.1v-1.2h5.72v1.2h-2.111v5.325H1393.4Z" transform="translate(-1236.449 -743.757)" fill="#fff"/>
    <path id="Path_311" data-name="Path 311" d="M1508.892,841.039v1.2h-5.085V835.7h4.9v1.2h-3.394v1.427h3.046v1.2h-3.046v1.523Z" transform="translate(-1340.742 -743.301)" fill="#fff"/>
  </g>
</svg>
