<svg xmlns="http://www.w3.org/2000/svg" width="17.333" height="17.333" viewBox="0 0 17.333 17.333">
  <path id="Icon_awesome-phone-alt" data-name="Icon awesome-phone-alt" d="M16.839,12.249l-3.792-1.625a.813.813,0,0,0-.948.234L10.42,12.909a12.549,12.549,0,0,1-6-6L6.473,5.231a.81.81,0,0,0,.234-.948L5.082.491A.818.818,0,0,0,4.151.021L.63.833A.813.813,0,0,0,0,1.625,15.707,15.707,0,0,0,15.709,17.334a.813.813,0,0,0,.792-.63l.813-3.521a.822.822,0,0,0-.474-.934Z" transform="translate(0 0)" fill="#fff"/>
</svg>
