<svg xmlns="http://www.w3.org/2000/svg" width="15" height="21.824" viewBox="0 0 15 21.824">
  <path id="Icon_awesome-question" data-name="Icon awesome-question" d="M9.32,0A8.259,8.259,0,0,0,1.984,3.88a1.024,1.024,0,0,0,.221,1.4L4.043,6.675A1.023,1.023,0,0,0,5.461,6.5C6.528,5.161,7.32,4.391,8.988,4.391c1.311,0,2.933.844,2.933,2.116,0,.961-.794,1.455-2.088,2.181-1.51.847-3.508,1.9-3.508,4.536v.417a1.023,1.023,0,0,0,1.023,1.023h3.089A1.023,1.023,0,0,0,11.46,13.64v-.246c0-1.827,5.34-1.9,5.34-6.847C16.8,2.824,12.938,0,9.32,0ZM8.893,15.919a2.953,2.953,0,1,0,2.953,2.953A2.956,2.956,0,0,0,8.893,15.919Z" transform="translate(-1.8)" fill="#fff"/>
</svg>
