<svg xmlns="http://www.w3.org/2000/svg" width="14.284" height="14.284" viewBox="0 0 14.284 14.284">
  <path id="Icon_awesome-skype" data-name="Icon awesome-skype" d="M13.544,10.791a6.941,6.941,0,0,0,.15-1.4A6.545,6.545,0,0,0,7.147,2.846,6.741,6.741,0,0,0,5.75,3,3.567,3.567,0,0,0,.743,8a6.941,6.941,0,0,0-.15,1.4,6.545,6.545,0,0,0,6.547,6.547,6.741,6.741,0,0,0,1.4-.15,3.567,3.567,0,0,0,5.747-2.829,3.518,3.518,0,0,0-.74-2.172ZM7.338,13.709c-2.092,0-3.843-.931-3.843-2.073a.9.9,0,0,1,.941-.976c1,0,1.088,1.432,2.81,1.432.82,0,1.349-.364,1.349-.839,0-.6-.51-.689-1.339-.893C5.262,9.869,3.5,9.658,3.5,7.579c0-1.888,1.869-2.586,3.479-2.586,1.757,0,3.534.7,3.534,1.767a.961.961,0,0,1-.966,1.014c-.9,0-.931-1.068-2.392-1.068-.82,0-1.339.223-1.339.718,0,.631.663.7,2.2,1.052,1.32.3,2.893.855,2.893,2.475,0,1.885-1.821,2.759-3.572,2.759Z" transform="translate(0 -2.25)" fill="#f7f7f7"/>
</svg>
