<svg xmlns="http://www.w3.org/2000/svg" width="15" height="15" viewBox="0 0 15 15">
  <path id="Icon_awesome-expand-arrows-alt" data-name="Icon awesome-expand-arrows-alt" d="M15,12.7v3.75a.8.8,0,0,1-.8.8h-3.75a.8.8,0,0,1-.569-1.373l1.212-1.212L7.5,11.076,3.91,14.669l1.213,1.209a.8.8,0,0,1-.569,1.373H.8a.8.8,0,0,1-.8-.8V12.7a.8.8,0,0,1,1.373-.569l1.212,1.212L6.176,9.75,2.584,6.157,1.373,7.373A.8.8,0,0,1,0,6.8V3.054a.8.8,0,0,1,.8-.8h3.75a.8.8,0,0,1,.569,1.373L3.911,4.835,7.5,8.424l3.59-3.593L9.877,3.623a.8.8,0,0,1,.569-1.373H14.2a.8.8,0,0,1,.8.8V6.8a.8.8,0,0,1-1.373.569L12.415,6.161,8.824,9.75l3.592,3.593,1.211-1.212A.8.8,0,0,1,15,12.7Z" transform="translate(0 -2.25)" fill="#fff"/>
</svg>
